<svg xmlns="http://www.w3.org/2000/svg" width="1440" height="900" viewBox="0 0 1440 900" role="img" aria-labelledby="title desc">
  <title id="title">Long-File Chunking &amp; Subprocess Isolation in PARSE</title>
  <desc id="desc">A 3-hour PARSE audio timeline split into 18 ten-minute chunks, processed inside protected subprocess boxes, then merged back onto the original timeline with chunk progress indicators.</desc>
  <defs>
    <pattern id="grid" width="32" height="32" patternUnits="userSpaceOnUse">
      <path d="M 32 0 L 0 0 0 32" fill="none" stroke="#e2e8f0" stroke-width="0.7" opacity="0.55"/>
    </pattern>
    <filter id="softShadow" x="-20%" y="-20%" width="140%" height="140%">
      <feDropShadow dx="0" dy="8" stdDeviation="7" flood-color="#0f172a" flood-opacity="0.10"/>
    </filter>
    <marker id="arrowBlue" markerWidth="9" markerHeight="9" refX="7" refY="4.5" orient="auto" markerUnits="strokeWidth">
      <path d="M 0 0 L 9 4.5 L 0 9 z" fill="#93c5fd"/>
    </marker>
    <marker id="arrowGreen" markerWidth="9" markerHeight="9" refX="7" refY="4.5" orient="auto" markerUnits="strokeWidth">
      <path d="M 0 0 L 9 4.5 L 0 9 z" fill="#22c55e"/>
    </marker>
    <symbol id="shield" viewBox="0 0 24 24">
      <path d="M12 2.8 20 6v5.6c0 5.1-3.4 8.8-8 10-4.6-1.2-8-4.9-8-10V6l8-3.2Z"/>
      <path d="M8.3 12.1 10.8 14.6 15.9 9.4" fill="none" stroke="#ffffff" stroke-width="2.1" stroke-linecap="round" stroke-linejoin="round"/>
    </symbol>
  </defs>

  <rect width="1440" height="900" fill="#ffffff"/>
  <rect width="1440" height="900" fill="url(#grid)"/>
  <rect x="28" y="28" width="1384" height="844" rx="30" fill="#ffffff" stroke="#cbd5e1" stroke-width="1.4"/>

  <text x="720.0" y="68" font-family="Inter, Arial, sans-serif" font-size="34" font-weight="800" fill="#0f172a" text-anchor="middle">Long-File Chunking &amp; Subprocess Isolation in PARSE</text>
  <text x="720.0" y="98" font-family="Inter, Arial, sans-serif" font-size="15" font-weight="500" fill="#475569" text-anchor="middle">3-hour example: full-file STT / full-mode ORTH use 18 adjacent 10-minute chunks; risky model work runs in child processes.</text>

  <rect x="54" y="125" width="1332" height="178" rx="22" fill="#f8fafc" stroke="#bfdbfe" stroke-width="1.2" />
  <text x="78" y="158" font-family="Inter, Arial, sans-serif" font-size="19" font-weight="800" fill="#1e3a8a" text-anchor="start">1 · Split the original audio timeline into bounded work units</text>
  <text x="78" y="181" font-family="Inter, Arial, sans-serif" font-size="13" font-weight="600" fill="#475569" text-anchor="start">split_audio_duration(total_seconds, chunk_seconds): adjacent spans, original speaker/audio unchanged</text>
  <rect x="120.0" y="192" width="64.8" height="52" rx="6" fill="#dbeafe" stroke="#60a5fa" stroke-width="1" /><text x="152.4" y="217" font-family="Inter, Arial, sans-serif" font-size="15" font-weight="700" fill="#1e3a8a" text-anchor="middle">1</text><text x="152.4" y="236" font-family="Inter, Arial, sans-serif" font-size="9" font-weight="600" fill="#334155" text-anchor="middle">0-10m</text><rect x="186.8" y="192" width="64.8" height="52" rx="6" fill="#e0f2fe" stroke="#60a5fa" stroke-width="1" /><text x="219.2" y="217" font-family="Inter, Arial, sans-serif" font-size="15" font-weight="700" fill="#1e3a8a" text-anchor="middle">2</text><text x="219.2" y="236" font-family="Inter, Arial, sans-serif" font-size="9" font-weight="600" fill="#334155" text-anchor="middle">10-20m</text><rect x="253.6" y="192" width="64.8" height="52" rx="6" fill="#dbeafe" stroke="#60a5fa" stroke-width="1" /><text x="285.9" y="217" font-family="Inter, Arial, sans-serif" font-size="15" font-weight="700" fill="#1e3a8a" text-anchor="middle">3</text><text x="285.9" y="236" font-family="Inter, Arial, sans-serif" font-size="9" font-weight="600" fill="#334155" text-anchor="middle">20-30m</text><rect x="320.3" y="192" width="64.8" height="52" rx="6" fill="#e0f2fe" stroke="#60a5fa" stroke-width="1" /><text x="352.7" y="217" font-family="Inter, Arial, sans-serif" font-size="15" font-weight="700" fill="#1e3a8a" text-anchor="middle">4</text><rect x="387.1" y="192" width="64.8" height="52" rx="6" fill="#dbeafe" stroke="#60a5fa" stroke-width="1" /><text x="419.5" y="217" font-family="Inter, Arial, sans-serif" font-size="15" font-weight="700" fill="#1e3a8a" text-anchor="middle">5</text><rect x="453.9" y="192" width="64.8" height="52" rx="6" fill="#e0f2fe" stroke="#60a5fa" stroke-width="1" /><text x="486.3" y="217" font-family="Inter, Arial, sans-serif" font-size="15" font-weight="700" fill="#1e3a8a" text-anchor="middle">6</text><rect x="520.7" y="192" width="64.8" height="52" rx="6" fill="#dbeafe" stroke="#60a5fa" stroke-width="1" /><text x="553.1" y="217" font-family="Inter, Arial, sans-serif" font-size="15" font-weight="700" fill="#1e3a8a" text-anchor="middle">7</text><rect x="587.4" y="192" width="64.8" height="52" rx="6" fill="#e0f2fe" stroke="#60a5fa" stroke-width="1" /><text x="619.8" y="217" font-family="Inter, Arial, sans-serif" font-size="15" font-weight="700" fill="#1e3a8a" text-anchor="middle">8</text><rect x="654.2" y="192" width="64.8" height="52" rx="6" fill="#dbeafe" stroke="#60a5fa" stroke-width="1" /><text x="686.6" y="217" font-family="Inter, Arial, sans-serif" font-size="15" font-weight="700" fill="#1e3a8a" text-anchor="middle">9</text><text x="686.6" y="236" font-family="Inter, Arial, sans-serif" font-size="9" font-weight="600" fill="#334155" text-anchor="middle">80-90m</text><rect x="721.0" y="192" width="64.8" height="52" rx="6" fill="#e0f2fe" stroke="#60a5fa" stroke-width="1" /><text x="753.4" y="217" font-family="Inter, Arial, sans-serif" font-size="15" font-weight="700" fill="#1e3a8a" text-anchor="middle">10</text><rect x="787.8" y="192" width="64.8" height="52" rx="6" fill="#dbeafe" stroke="#60a5fa" stroke-width="1" /><text x="820.2" y="217" font-family="Inter, Arial, sans-serif" font-size="15" font-weight="700" fill="#1e3a8a" text-anchor="middle">11</text><rect x="854.6" y="192" width="64.8" height="52" rx="6" fill="#e0f2fe" stroke="#60a5fa" stroke-width="1" /><text x="886.9" y="217" font-family="Inter, Arial, sans-serif" font-size="15" font-weight="700" fill="#1e3a8a" text-anchor="middle">12</text><rect x="921.3" y="192" width="64.8" height="52" rx="6" fill="#dbeafe" stroke="#60a5fa" stroke-width="1" /><text x="953.7" y="217" font-family="Inter, Arial, sans-serif" font-size="15" font-weight="700" fill="#1e3a8a" text-anchor="middle">13</text><rect x="988.1" y="192" width="64.8" height="52" rx="6" fill="#e0f2fe" stroke="#60a5fa" stroke-width="1" /><text x="1020.5" y="217" font-family="Inter, Arial, sans-serif" font-size="15" font-weight="700" fill="#1e3a8a" text-anchor="middle">14</text><rect x="1054.9" y="192" width="64.8" height="52" rx="6" fill="#dbeafe" stroke="#60a5fa" stroke-width="1" /><text x="1087.3" y="217" font-family="Inter, Arial, sans-serif" font-size="15" font-weight="700" fill="#1e3a8a" text-anchor="middle">15</text><rect x="1121.7" y="192" width="64.8" height="52" rx="6" fill="#e0f2fe" stroke="#60a5fa" stroke-width="1" /><text x="1154.1" y="217" font-family="Inter, Arial, sans-serif" font-size="15" font-weight="700" fill="#1e3a8a" text-anchor="middle">16</text><text x="1154.1" y="236" font-family="Inter, Arial, sans-serif" font-size="9" font-weight="600" fill="#334155" text-anchor="middle">160-170m</text><rect x="1188.4" y="192" width="64.8" height="52" rx="6" fill="#dbeafe" stroke="#60a5fa" stroke-width="1" /><text x="1220.8" y="217" font-family="Inter, Arial, sans-serif" font-size="15" font-weight="700" fill="#1e3a8a" text-anchor="middle">17</text><text x="1220.8" y="236" font-family="Inter, Arial, sans-serif" font-size="9" font-weight="600" fill="#334155" text-anchor="middle">170-180m</text><rect x="1255.2" y="192" width="64.8" height="52" rx="6" fill="#e0f2fe" stroke="#60a5fa" stroke-width="1" /><text x="1287.6" y="217" font-family="Inter, Arial, sans-serif" font-size="15" font-weight="700" fill="#1e3a8a" text-anchor="middle">18</text><text x="1287.6" y="236" font-family="Inter, Arial, sans-serif" font-size="9" font-weight="600" fill="#334155" text-anchor="middle">end</text><line x1="120" y1="254" x2="1320" y2="254" stroke="#334155" stroke-width="1.4" /><line x1="120" y1="248" x2="120" y2="262" stroke="#334155" stroke-width="1.4" /><text x="120" y="281" font-family="Inter, Arial, sans-serif" font-size="12" font-weight="700" fill="#334155" text-anchor="middle">0:00</text><line x1="520.0" y1="248" x2="520.0" y2="262" stroke="#334155" stroke-width="1.4" /><text x="520.0" y="281" font-family="Inter, Arial, sans-serif" font-size="12" font-weight="700" fill="#334155" text-anchor="middle">1:00</text><line x1="920.0" y1="248" x2="920.0" y2="262" stroke="#334155" stroke-width="1.4" /><text x="920.0" y="281" font-family="Inter, Arial, sans-serif" font-size="12" font-weight="700" fill="#334155" text-anchor="middle">2:00</text><line x1="1320" y1="248" x2="1320" y2="262" stroke="#334155" stroke-width="1.4" /><text x="1320" y="281" font-family="Inter, Arial, sans-serif" font-size="12" font-weight="700" fill="#334155" text-anchor="middle">3:00</text>

  <rect x="54" y="334" width="1332" height="214" rx="22" fill="#f8fafc" stroke="#dbeafe" stroke-width="1.2" />
  <text x="78" y="370" font-family="Inter, Arial, sans-serif" font-size="19" font-weight="800" fill="#1e40af" text-anchor="start">2 · Process each chunk behind a subprocess isolation boundary</text>
  <text x="78" y="393" font-family="Inter, Arial, sans-serif" font-size="13" font-weight="600" fill="#475569" text-anchor="start">Each box is a protected child process: model/provider loads inside the child; crash/OOM/timeout is contained and serialized.</text>
  <rect x="130.0" y="408" width="58" height="88" rx="12" fill="#ffffff" stroke="#2563eb" stroke-width="1.4" filter="url(#softShadow)"/><use href="#shield" x="149.5" y="423.5" width="19" height="19" fill="#2563eb"/><text x="159.0" y="459" font-family="Inter, Arial, sans-serif" font-size="12" font-weight="800" fill="#0f172a" text-anchor="middle">C1</text><text x="159.0" y="477" font-family="Inter, Arial, sans-serif" font-size="9" font-weight="600" fill="#475569" text-anchor="middle">child</text><text x="159.0" y="490" font-family="Inter, Arial, sans-serif" font-size="8" font-weight="600" fill="#64748b" text-anchor="middle">process</text><path d="M 152.4 245 C 152.4 310, 159.0 330, 159.0 404" stroke="#bfdbfe" fill="none" stroke-width="1.2" stroke-linecap="round" stroke-linejoin="round" marker-end="url(#arrowBlue)" opacity="0.55"/><rect x="196.0" y="408" width="58" height="88" rx="12" fill="#ffffff" stroke="#2563eb" stroke-width="1.4" filter="url(#softShadow)"/><use href="#shield" x="215.5" y="423.5" width="19" height="19" fill="#2563eb"/><text x="225.0" y="459" font-family="Inter, Arial, sans-serif" font-size="12" font-weight="800" fill="#0f172a" text-anchor="middle">C2</text><text x="225.0" y="477" font-family="Inter, Arial, sans-serif" font-size="9" font-weight="600" fill="#475569" text-anchor="middle">child</text><text x="225.0" y="490" font-family="Inter, Arial, sans-serif" font-size="8" font-weight="600" fill="#64748b" text-anchor="middle">process</text><path d="M 219.2 245 C 219.2 310, 225.0 330, 225.0 404" stroke="#bfdbfe" fill="none" stroke-width="1.2" stroke-linecap="round" stroke-linejoin="round" marker-end="url(#arrowBlue)" opacity="0.55"/><rect x="262.0" y="408" width="58" height="88" rx="12" fill="#ffffff" stroke="#2563eb" stroke-width="1.4" filter="url(#softShadow)"/><use href="#shield" x="281.5" y="423.5" width="19" height="19" fill="#2563eb"/><text x="291.0" y="459" font-family="Inter, Arial, sans-serif" font-size="12" font-weight="800" fill="#0f172a" text-anchor="middle">C3</text><text x="291.0" y="477" font-family="Inter, Arial, sans-serif" font-size="9" font-weight="600" fill="#475569" text-anchor="middle">child</text><text x="291.0" y="490" font-family="Inter, Arial, sans-serif" font-size="8" font-weight="600" fill="#64748b" text-anchor="middle">process</text><path d="M 285.9 245 C 285.9 310, 291.0 330, 291.0 404" stroke="#bfdbfe" fill="none" stroke-width="1.2" stroke-linecap="round" stroke-linejoin="round" marker-end="url(#arrowBlue)" opacity="0.55"/><rect x="328.0" y="408" width="58" height="88" rx="12" fill="#ffffff" stroke="#2563eb" stroke-width="1.4" filter="url(#softShadow)"/><use href="#shield" x="347.5" y="423.5" width="19" height="19" fill="#2563eb"/><text x="357.0" y="459" font-family="Inter, Arial, sans-serif" font-size="12" font-weight="800" fill="#0f172a" text-anchor="middle">C4</text><text x="357.0" y="477" font-family="Inter, Arial, sans-serif" font-size="9" font-weight="600" fill="#475569" text-anchor="middle">child</text><text x="357.0" y="490" font-family="Inter, Arial, sans-serif" font-size="8" font-weight="600" fill="#64748b" text-anchor="middle">process</text><path d="M 352.7 245 C 352.7 310, 357.0 330, 357.0 404" stroke="#bfdbfe" fill="none" stroke-width="1.2" stroke-linecap="round" stroke-linejoin="round" marker-end="url(#arrowBlue)" opacity="0.55"/><rect x="394.0" y="408" width="58" height="88" rx="12" fill="#ffffff" stroke="#2563eb" stroke-width="1.4" filter="url(#softShadow)"/><use href="#shield" x="413.5" y="423.5" width="19" height="19" fill="#2563eb"/><text x="423.0" y="459" font-family="Inter, Arial, sans-serif" font-size="12" font-weight="800" fill="#0f172a" text-anchor="middle">C5</text><text x="423.0" y="477" font-family="Inter, Arial, sans-serif" font-size="9" font-weight="600" fill="#475569" text-anchor="middle">child</text><text x="423.0" y="490" font-family="Inter, Arial, sans-serif" font-size="8" font-weight="600" fill="#64748b" text-anchor="middle">process</text><path d="M 419.5 245 C 419.5 310, 423.0 330, 423.0 404" stroke="#bfdbfe" fill="none" stroke-width="1.2" stroke-linecap="round" stroke-linejoin="round" marker-end="url(#arrowBlue)" opacity="0.55"/><rect x="460.0" y="408" width="58" height="88" rx="12" fill="#ffffff" stroke="#2563eb" stroke-width="1.4" filter="url(#softShadow)"/><use href="#shield" x="479.5" y="423.5" width="19" height="19" fill="#2563eb"/><text x="489.0" y="459" font-family="Inter, Arial, sans-serif" font-size="12" font-weight="800" fill="#0f172a" text-anchor="middle">C6</text><text x="489.0" y="477" font-family="Inter, Arial, sans-serif" font-size="9" font-weight="600" fill="#475569" text-anchor="middle">child</text><text x="489.0" y="490" font-family="Inter, Arial, sans-serif" font-size="8" font-weight="600" fill="#64748b" text-anchor="middle">process</text><path d="M 486.3 245 C 486.3 310, 489.0 330, 489.0 404" stroke="#bfdbfe" fill="none" stroke-width="1.2" stroke-linecap="round" stroke-linejoin="round" marker-end="url(#arrowBlue)" opacity="0.55"/><rect x="526.0" y="408" width="58" height="88" rx="12" fill="#ffffff" stroke="#2563eb" stroke-width="1.4" filter="url(#softShadow)"/><use href="#shield" x="545.5" y="423.5" width="19" height="19" fill="#2563eb"/><text x="555.0" y="459" font-family="Inter, Arial, sans-serif" font-size="12" font-weight="800" fill="#0f172a" text-anchor="middle">C7</text><text x="555.0" y="477" font-family="Inter, Arial, sans-serif" font-size="9" font-weight="600" fill="#475569" text-anchor="middle">child</text><text x="555.0" y="490" font-family="Inter, Arial, sans-serif" font-size="8" font-weight="600" fill="#64748b" text-anchor="middle">process</text><path d="M 553.1 245 C 553.1 310, 555.0 330, 555.0 404" stroke="#bfdbfe" fill="none" stroke-width="1.2" stroke-linecap="round" stroke-linejoin="round" marker-end="url(#arrowBlue)" opacity="0.55"/><rect x="592.0" y="408" width="58" height="88" rx="12" fill="#ffffff" stroke="#f59e0b" stroke-width="1.4" filter="url(#softShadow)"/><use href="#shield" x="611.5" y="423.5" width="19" height="19" fill="#2563eb"/><text x="621.0" y="459" font-family="Inter, Arial, sans-serif" font-size="12" font-weight="800" fill="#0f172a" text-anchor="middle">C8</text><text x="621.0" y="477" font-family="Inter, Arial, sans-serif" font-size="9" font-weight="600" fill="#475569" text-anchor="middle">child</text><text x="621.0" y="490" font-family="Inter, Arial, sans-serif" font-size="8" font-weight="600" fill="#64748b" text-anchor="middle">process</text><path d="M 619.8 245 C 619.8 310, 621.0 330, 621.0 404" stroke="#bfdbfe" fill="none" stroke-width="1.2" stroke-linecap="round" stroke-linejoin="round" marker-end="url(#arrowBlue)" opacity="0.55"/><rect x="658.0" y="408" width="58" height="88" rx="12" fill="#ffffff" stroke="#2563eb" stroke-width="1.4" filter="url(#softShadow)"/><use href="#shield" x="677.5" y="423.5" width="19" height="19" fill="#2563eb"/><text x="687.0" y="459" font-family="Inter, Arial, sans-serif" font-size="12" font-weight="800" fill="#0f172a" text-anchor="middle">C9</text><text x="687.0" y="477" font-family="Inter, Arial, sans-serif" font-size="9" font-weight="600" fill="#475569" text-anchor="middle">child</text><text x="687.0" y="490" font-family="Inter, Arial, sans-serif" font-size="8" font-weight="600" fill="#64748b" text-anchor="middle">process</text><path d="M 686.6 245 C 686.6 310, 687.0 330, 687.0 404" stroke="#bfdbfe" fill="none" stroke-width="1.2" stroke-linecap="round" stroke-linejoin="round" marker-end="url(#arrowBlue)" opacity="0.55"/><rect x="724.0" y="408" width="58" height="88" rx="12" fill="#ffffff" stroke="#2563eb" stroke-width="1.4" filter="url(#softShadow)"/><use href="#shield" x="743.5" y="423.5" width="19" height="19" fill="#2563eb"/><text x="753.0" y="459" font-family="Inter, Arial, sans-serif" font-size="12" font-weight="800" fill="#0f172a" text-anchor="middle">C10</text><text x="753.0" y="477" font-family="Inter, Arial, sans-serif" font-size="9" font-weight="600" fill="#475569" text-anchor="middle">child</text><text x="753.0" y="490" font-family="Inter, Arial, sans-serif" font-size="8" font-weight="600" fill="#64748b" text-anchor="middle">process</text><path d="M 753.4 245 C 753.4 310, 753.0 330, 753.0 404" stroke="#bfdbfe" fill="none" stroke-width="1.2" stroke-linecap="round" stroke-linejoin="round" marker-end="url(#arrowBlue)" opacity="0.55"/><rect x="790.0" y="408" width="58" height="88" rx="12" fill="#ffffff" stroke="#2563eb" stroke-width="1.4" filter="url(#softShadow)"/><use href="#shield" x="809.5" y="423.5" width="19" height="19" fill="#2563eb"/><text x="819.0" y="459" font-family="Inter, Arial, sans-serif" font-size="12" font-weight="800" fill="#0f172a" text-anchor="middle">C11</text><text x="819.0" y="477" font-family="Inter, Arial, sans-serif" font-size="9" font-weight="600" fill="#475569" text-anchor="middle">child</text><text x="819.0" y="490" font-family="Inter, Arial, sans-serif" font-size="8" font-weight="600" fill="#64748b" text-anchor="middle">process</text><path d="M 820.2 245 C 820.2 310, 819.0 330, 819.0 404" stroke="#bfdbfe" fill="none" stroke-width="1.2" stroke-linecap="round" stroke-linejoin="round" marker-end="url(#arrowBlue)" opacity="0.55"/><rect x="856.0" y="408" width="58" height="88" rx="12" fill="#ffffff" stroke="#2563eb" stroke-width="1.4" filter="url(#softShadow)"/><use href="#shield" x="875.5" y="423.5" width="19" height="19" fill="#2563eb"/><text x="885.0" y="459" font-family="Inter, Arial, sans-serif" font-size="12" font-weight="800" fill="#0f172a" text-anchor="middle">C12</text><text x="885.0" y="477" font-family="Inter, Arial, sans-serif" font-size="9" font-weight="600" fill="#475569" text-anchor="middle">child</text><text x="885.0" y="490" font-family="Inter, Arial, sans-serif" font-size="8" font-weight="600" fill="#64748b" text-anchor="middle">process</text><path d="M 886.9 245 C 886.9 310, 885.0 330, 885.0 404" stroke="#bfdbfe" fill="none" stroke-width="1.2" stroke-linecap="round" stroke-linejoin="round" marker-end="url(#arrowBlue)" opacity="0.55"/><rect x="922.0" y="408" width="58" height="88" rx="12" fill="#ffffff" stroke="#2563eb" stroke-width="1.4" filter="url(#softShadow)"/><use href="#shield" x="941.5" y="423.5" width="19" height="19" fill="#2563eb"/><text x="951.0" y="459" font-family="Inter, Arial, sans-serif" font-size="12" font-weight="800" fill="#0f172a" text-anchor="middle">C13</text><text x="951.0" y="477" font-family="Inter, Arial, sans-serif" font-size="9" font-weight="600" fill="#475569" text-anchor="middle">child</text><text x="951.0" y="490" font-family="Inter, Arial, sans-serif" font-size="8" font-weight="600" fill="#64748b" text-anchor="middle">process</text><path d="M 953.7 245 C 953.7 310, 951.0 330, 951.0 404" stroke="#bfdbfe" fill="none" stroke-width="1.2" stroke-linecap="round" stroke-linejoin="round" marker-end="url(#arrowBlue)" opacity="0.55"/><rect x="988.0" y="408" width="58" height="88" rx="12" fill="#ffffff" stroke="#f59e0b" stroke-width="1.4" filter="url(#softShadow)"/><use href="#shield" x="1007.5" y="423.5" width="19" height="19" fill="#2563eb"/><text x="1017.0" y="459" font-family="Inter, Arial, sans-serif" font-size="12" font-weight="800" fill="#0f172a" text-anchor="middle">C14</text><text x="1017.0" y="477" font-family="Inter, Arial, sans-serif" font-size="9" font-weight="600" fill="#475569" text-anchor="middle">child</text><text x="1017.0" y="490" font-family="Inter, Arial, sans-serif" font-size="8" font-weight="600" fill="#64748b" text-anchor="middle">process</text><path d="M 1020.5 245 C 1020.5 310, 1017.0 330, 1017.0 404" stroke="#bfdbfe" fill="none" stroke-width="1.2" stroke-linecap="round" stroke-linejoin="round" marker-end="url(#arrowBlue)" opacity="0.55"/><rect x="1054.0" y="408" width="58" height="88" rx="12" fill="#ffffff" stroke="#2563eb" stroke-width="1.4" filter="url(#softShadow)"/><use href="#shield" x="1073.5" y="423.5" width="19" height="19" fill="#2563eb"/><text x="1083.0" y="459" font-family="Inter, Arial, sans-serif" font-size="12" font-weight="800" fill="#0f172a" text-anchor="middle">C15</text><text x="1083.0" y="477" font-family="Inter, Arial, sans-serif" font-size="9" font-weight="600" fill="#475569" text-anchor="middle">child</text><text x="1083.0" y="490" font-family="Inter, Arial, sans-serif" font-size="8" font-weight="600" fill="#64748b" text-anchor="middle">process</text><path d="M 1087.3 245 C 1087.3 310, 1083.0 330, 1083.0 404" stroke="#bfdbfe" fill="none" stroke-width="1.2" stroke-linecap="round" stroke-linejoin="round" marker-end="url(#arrowBlue)" opacity="0.55"/><rect x="1120.0" y="408" width="58" height="88" rx="12" fill="#ffffff" stroke="#2563eb" stroke-width="1.4" filter="url(#softShadow)"/><use href="#shield" x="1139.5" y="423.5" width="19" height="19" fill="#2563eb"/><text x="1149.0" y="459" font-family="Inter, Arial, sans-serif" font-size="12" font-weight="800" fill="#0f172a" text-anchor="middle">C16</text><text x="1149.0" y="477" font-family="Inter, Arial, sans-serif" font-size="9" font-weight="600" fill="#475569" text-anchor="middle">child</text><text x="1149.0" y="490" font-family="Inter, Arial, sans-serif" font-size="8" font-weight="600" fill="#64748b" text-anchor="middle">process</text><path d="M 1154.1 245 C 1154.1 310, 1149.0 330, 1149.0 404" stroke="#bfdbfe" fill="none" stroke-width="1.2" stroke-linecap="round" stroke-linejoin="round" marker-end="url(#arrowBlue)" opacity="0.55"/><rect x="1186.0" y="408" width="58" height="88" rx="12" fill="#ffffff" stroke="#2563eb" stroke-width="1.4" filter="url(#softShadow)"/><use href="#shield" x="1205.5" y="423.5" width="19" height="19" fill="#2563eb"/><text x="1215.0" y="459" font-family="Inter, Arial, sans-serif" font-size="12" font-weight="800" fill="#0f172a" text-anchor="middle">C17</text><text x="1215.0" y="477" font-family="Inter, Arial, sans-serif" font-size="9" font-weight="600" fill="#475569" text-anchor="middle">child</text><text x="1215.0" y="490" font-family="Inter, Arial, sans-serif" font-size="8" font-weight="600" fill="#64748b" text-anchor="middle">process</text><path d="M 1220.8 245 C 1220.8 310, 1215.0 330, 1215.0 404" stroke="#bfdbfe" fill="none" stroke-width="1.2" stroke-linecap="round" stroke-linejoin="round" marker-end="url(#arrowBlue)" opacity="0.55"/><rect x="1252.0" y="408" width="58" height="88" rx="12" fill="#ffffff" stroke="#2563eb" stroke-width="1.4" filter="url(#softShadow)"/><use href="#shield" x="1271.5" y="423.5" width="19" height="19" fill="#2563eb"/><text x="1281.0" y="459" font-family="Inter, Arial, sans-serif" font-size="12" font-weight="800" fill="#0f172a" text-anchor="middle">C18</text><text x="1281.0" y="477" font-family="Inter, Arial, sans-serif" font-size="9" font-weight="600" fill="#475569" text-anchor="middle">child</text><text x="1281.0" y="490" font-family="Inter, Arial, sans-serif" font-size="8" font-weight="600" fill="#64748b" text-anchor="middle">process</text><path d="M 1287.6 245 C 1287.6 310, 1281.0 330, 1281.0 404" stroke="#bfdbfe" fill="none" stroke-width="1.2" stroke-linecap="round" stroke-linejoin="round" marker-end="url(#arrowBlue)" opacity="0.55"/>

  <rect x="54" y="590" width="1332" height="238" rx="22" fill="#f8fafc" stroke="#bbf7d0" stroke-width="1.2" />
  <text x="78" y="624" font-family="Inter, Arial, sans-serif" font-size="19" font-weight="800" fill="#166534" text-anchor="start">3 · Merge successful chunks back onto the original time ruler</text>
  <text x="78" y="802" font-family="Inter, Arial, sans-serif" font-size="13" font-weight="700" fill="#334155" text-anchor="start">Result contract: chunks[] records diagnostics; merged STT cache / ORTH tiers remain a flat whole-speaker timeline.</text>
  <line x1="120" y1="704" x2="1320" y2="704" stroke="#16a34a" stroke-width="8" stroke-linecap="round"/><circle cx="152.4" cy="704" r="12" fill="#ffffff" stroke="#22c55e" stroke-width="3"/><text x="152.4" y="708" font-family="Inter, Arial, sans-serif" font-size="7.2" font-weight="800" fill="#166534" text-anchor="middle">OK</text><path d="M 159.0 498 C 159.0 565, 152.4 620, 152.4 684" stroke="#86efac" fill="none" stroke-width="1.5" stroke-linecap="round" stroke-linejoin="round" marker-end="url(#arrowGreen)" opacity="0.75"/><circle cx="219.2" cy="704" r="12" fill="#ffffff" stroke="#22c55e" stroke-width="3"/><text x="219.2" y="708" font-family="Inter, Arial, sans-serif" font-size="7.2" font-weight="800" fill="#166534" text-anchor="middle">OK</text><path d="M 225.0 498 C 225.0 565, 219.2 620, 219.2 684" stroke="#86efac" fill="none" stroke-width="1.5" stroke-linecap="round" stroke-linejoin="round" marker-end="url(#arrowGreen)" opacity="0.75"/><circle cx="285.9" cy="704" r="12" fill="#ffffff" stroke="#22c55e" stroke-width="3"/><text x="285.9" y="708" font-family="Inter, Arial, sans-serif" font-size="7.2" font-weight="800" fill="#166534" text-anchor="middle">OK</text><path d="M 291.0 498 C 291.0 565, 285.9 620, 285.9 684" stroke="#86efac" fill="none" stroke-width="1.5" stroke-linecap="round" stroke-linejoin="round" marker-end="url(#arrowGreen)" opacity="0.75"/><circle cx="352.7" cy="704" r="12" fill="#ffffff" stroke="#22c55e" stroke-width="3"/><text x="352.7" y="708" font-family="Inter, Arial, sans-serif" font-size="7.2" font-weight="800" fill="#166534" text-anchor="middle">OK</text><circle cx="419.5" cy="704" r="12" fill="#ffffff" stroke="#22c55e" stroke-width="3"/><text x="419.5" y="708" font-family="Inter, Arial, sans-serif" font-size="7.2" font-weight="800" fill="#166534" text-anchor="middle">OK</text><circle cx="486.3" cy="704" r="12" fill="#ffffff" stroke="#22c55e" stroke-width="3"/><text x="486.3" y="708" font-family="Inter, Arial, sans-serif" font-size="7.2" font-weight="800" fill="#166534" text-anchor="middle">OK</text><path d="M 489.0 498 C 489.0 565, 486.3 620, 486.3 684" stroke="#86efac" fill="none" stroke-width="1.5" stroke-linecap="round" stroke-linejoin="round" marker-end="url(#arrowGreen)" opacity="0.75"/><circle cx="553.1" cy="704" r="12" fill="#ffffff" stroke="#22c55e" stroke-width="3"/><text x="553.1" y="708" font-family="Inter, Arial, sans-serif" font-size="7.2" font-weight="800" fill="#166534" text-anchor="middle">OK</text><circle cx="619.8" cy="704" r="12" fill="#ffffff" stroke="#22c55e" stroke-width="3"/><text x="619.8" y="708" font-family="Inter, Arial, sans-serif" font-size="7.2" font-weight="800" fill="#166534" text-anchor="middle">OK</text><circle cx="686.6" cy="704" r="12" fill="#ffffff" stroke="#22c55e" stroke-width="3"/><text x="686.6" y="708" font-family="Inter, Arial, sans-serif" font-size="7.2" font-weight="800" fill="#166534" text-anchor="middle">OK</text><path d="M 687.0 498 C 687.0 565, 686.6 620, 686.6 684" stroke="#86efac" fill="none" stroke-width="1.5" stroke-linecap="round" stroke-linejoin="round" marker-end="url(#arrowGreen)" opacity="0.75"/><circle cx="753.4" cy="704" r="12" fill="#ffffff" stroke="#22c55e" stroke-width="3"/><text x="753.4" y="708" font-family="Inter, Arial, sans-serif" font-size="7.2" font-weight="800" fill="#166534" text-anchor="middle">OK</text><circle cx="820.2" cy="704" r="12" fill="#ffffff" stroke="#22c55e" stroke-width="3"/><text x="820.2" y="708" font-family="Inter, Arial, sans-serif" font-size="7.2" font-weight="800" fill="#166534" text-anchor="middle">OK</text><circle cx="886.9" cy="704" r="12" fill="#ffffff" stroke="#22c55e" stroke-width="3"/><text x="886.9" y="708" font-family="Inter, Arial, sans-serif" font-size="7.2" font-weight="800" fill="#166534" text-anchor="middle">OK</text><path d="M 885.0 498 C 885.0 565, 886.9 620, 886.9 684" stroke="#86efac" fill="none" stroke-width="1.5" stroke-linecap="round" stroke-linejoin="round" marker-end="url(#arrowGreen)" opacity="0.75"/><circle cx="953.7" cy="704" r="12" fill="#ffffff" stroke="#22c55e" stroke-width="3"/><text x="953.7" y="708" font-family="Inter, Arial, sans-serif" font-size="7.2" font-weight="800" fill="#166534" text-anchor="middle">OK</text><circle cx="1020.5" cy="704" r="12" fill="#ffffff" stroke="#22c55e" stroke-width="3"/><text x="1020.5" y="708" font-family="Inter, Arial, sans-serif" font-size="7.2" font-weight="800" fill="#166534" text-anchor="middle">OK</text><circle cx="1087.3" cy="704" r="12" fill="#ffffff" stroke="#22c55e" stroke-width="3"/><text x="1087.3" y="708" font-family="Inter, Arial, sans-serif" font-size="7.2" font-weight="800" fill="#166534" text-anchor="middle">OK</text><path d="M 1083.0 498 C 1083.0 565, 1087.3 620, 1087.3 684" stroke="#86efac" fill="none" stroke-width="1.5" stroke-linecap="round" stroke-linejoin="round" marker-end="url(#arrowGreen)" opacity="0.75"/><circle cx="1154.1" cy="704" r="12" fill="#ffffff" stroke="#22c55e" stroke-width="3"/><text x="1154.1" y="708" font-family="Inter, Arial, sans-serif" font-size="7.2" font-weight="800" fill="#166534" text-anchor="middle">OK</text><circle cx="1220.8" cy="704" r="12" fill="#ffffff" stroke="#22c55e" stroke-width="3"/><text x="1220.8" y="708" font-family="Inter, Arial, sans-serif" font-size="7.2" font-weight="800" fill="#166534" text-anchor="middle">OK</text><circle cx="1287.6" cy="704" r="12" fill="#ffffff" stroke="#22c55e" stroke-width="3"/><text x="1287.6" y="708" font-family="Inter, Arial, sans-serif" font-size="7.2" font-weight="800" fill="#166534" text-anchor="middle">OK</text><path d="M 1281.0 498 C 1281.0 565, 1287.6 620, 1287.6 684" stroke="#86efac" fill="none" stroke-width="1.5" stroke-linecap="round" stroke-linejoin="round" marker-end="url(#arrowGreen)" opacity="0.75"/><rect x="118.0" y="632" width="148" height="36" rx="18" fill="#f0fdf4" stroke="#22c55e" stroke-width="1.2" /><text x="192.0" y="655" font-family="Inter, Arial, sans-serif" font-size="12" font-weight="800" fill="#166534" text-anchor="middle">STT chunk 1/18 · 6%</text><line x1="192.0" y1="668" x2="192.0" y2="688" stroke="#22c55e" stroke-width="1.2" stroke-dasharray="4 4"/><rect x="442.0" y="632" width="148" height="36" rx="18" fill="#f0fdf4" stroke="#22c55e" stroke-width="1.2" /><text x="516.0" y="655" font-family="Inter, Arial, sans-serif" font-size="12" font-weight="800" fill="#166534" text-anchor="middle">chunk 6/18 · 33%</text><line x1="516.0" y1="668" x2="516.0" y2="688" stroke="#22c55e" stroke-width="1.2" stroke-dasharray="4 4"/><rect x="850.0" y="632" width="148" height="36" rx="18" fill="#f0fdf4" stroke="#22c55e" stroke-width="1.2" /><text x="924.0" y="655" font-family="Inter, Arial, sans-serif" font-size="12" font-weight="800" fill="#166534" text-anchor="middle">chunk 12/18 · 67%</text><line x1="924.0" y1="668" x2="924.0" y2="688" stroke="#22c55e" stroke-width="1.2" stroke-dasharray="4 4"/><rect x="1240.0" y="632" width="160" height="36" rx="18" fill="#f0fdf4" stroke="#22c55e" stroke-width="1.2" /><text x="1320.0" y="655" font-family="Inter, Arial, sans-serif" font-size="12" font-weight="800" fill="#166534" text-anchor="middle">chunk 18/18 · 100%</text><line x1="1320.0" y1="668" x2="1320.0" y2="688" stroke="#22c55e" stroke-width="1.2" stroke-dasharray="4 4"/>

  <g aria-label="legend">
    <rect x="870" y="776" width="480" height="34" rx="17" fill="#ffffff" stroke="#cbd5e1" stroke-width="1" />
    <use href="#shield" x="886.5" y="784.5" width="17" height="17" fill="#2563eb"/>
    <text x="911" y="798" font-family="Inter, Arial, sans-serif" font-size="12" font-weight="700" fill="#334155" text-anchor="start">subprocess shield</text>
    <circle cx="1040" cy="793" r="8" fill="#ffffff" stroke="#22c55e" stroke-width="3"/>
    <text x="1054" y="798" font-family="Inter, Arial, sans-serif" font-size="12" font-weight="700" fill="#334155" text-anchor="start">merged OK span</text>
    <rect x="1165" y="785" width="24" height="16" rx="4" fill="#dbeafe" stroke="#60a5fa"/>
    <text x="1196" y="798" font-family="Inter, Arial, sans-serif" font-size="12" font-weight="700" fill="#334155" text-anchor="start">10-minute STT/ORTH chunk</text>
  </g>

  <text x="78" y="850" font-family="Inter, Arial, sans-serif" font-size="11" font-weight="600" fill="#64748b" text-anchor="start">Grounded in docs/architecture/chunking.md, python/workers/audio_chunking.py, python/server_routes/media.py, annotate.py, and jobs.py.</text>
</svg>
